<mxfile host="app.diagrams.net" agent="Mozilla/5.0 (Windows NT 10.0; Win64; x64) AppleWebKit/537.36 (KHTML, like Gecko) Chrome/130.0.0.0 Safari/537.36" version="24.8.6">
  <diagram name="第 1 页" id="CWnnK926EOWc9-pOvjC1">
    <mxGraphModel dx="1371" dy="786" grid="1" gridSize="10" guides="1" tooltips="1" connect="1" arrows="1" fold="1" page="1" pageScale="1" pageWidth="827" pageHeight="1169" math="0" shadow="0">
      <root>
        <mxCell id="0" />
        <mxCell id="1" parent="0" />
        <mxCell id="k0Vlq0JMDtf_6G-V6ymi-1" value="Client" style="shape=umlActor;verticalLabelPosition=bottom;verticalAlign=top;html=1;outlineConnect=0;" vertex="1" parent="1">
          <mxGeometry x="50" y="244" width="30" height="60" as="geometry" />
        </mxCell>
        <mxCell id="k0Vlq0JMDtf_6G-V6ymi-3" value="" style="shape=cylinder3;whiteSpace=wrap;html=1;boundedLbl=1;backgroundOutline=1;size=15;" vertex="1" parent="1">
          <mxGeometry x="535" y="241" width="50" height="60" as="geometry" />
        </mxCell>
        <mxCell id="k0Vlq0JMDtf_6G-V6ymi-4" value="Server" style="text;html=1;align=center;verticalAlign=middle;resizable=0;points=[];autosize=1;strokeColor=none;fillColor=none;" vertex="1" parent="1">
          <mxGeometry x="530" y="301" width="60" height="30" as="geometry" />
        </mxCell>
        <mxCell id="k0Vlq0JMDtf_6G-V6ymi-6" value="" style="rounded=0;whiteSpace=wrap;html=1;" vertex="1" parent="1">
          <mxGeometry x="50" y="340" width="30" height="500" as="geometry" />
        </mxCell>
        <mxCell id="k0Vlq0JMDtf_6G-V6ymi-7" value="" style="rounded=0;whiteSpace=wrap;html=1;" vertex="1" parent="1">
          <mxGeometry x="545" y="340" width="30" height="500" as="geometry" />
        </mxCell>
        <mxCell id="k0Vlq0JMDtf_6G-V6ymi-8" value="" style="endArrow=classic;html=1;rounded=0;exitX=1;exitY=0;exitDx=0;exitDy=0;entryX=0;entryY=0;entryDx=0;entryDy=0;" edge="1" parent="1" source="k0Vlq0JMDtf_6G-V6ymi-6" target="k0Vlq0JMDtf_6G-V6ymi-7">
          <mxGeometry width="50" height="50" relative="1" as="geometry">
            <mxPoint x="150" y="430" as="sourcePoint" />
            <mxPoint x="200" y="380" as="targetPoint" />
          </mxGeometry>
        </mxCell>
        <mxCell id="k0Vlq0JMDtf_6G-V6ymi-9" value="建立连接" style="edgeLabel;html=1;align=center;verticalAlign=middle;resizable=0;points=[];" vertex="1" connectable="0" parent="k0Vlq0JMDtf_6G-V6ymi-8">
          <mxGeometry x="0.1785" y="-4" relative="1" as="geometry">
            <mxPoint x="-64" y="-4" as="offset" />
          </mxGeometry>
        </mxCell>
        <mxCell id="k0Vlq0JMDtf_6G-V6ymi-11" value="" style="shape=cylinder3;whiteSpace=wrap;html=1;boundedLbl=1;backgroundOutline=1;size=15;" vertex="1" parent="1">
          <mxGeometry x="875" y="242" width="50" height="60" as="geometry" />
        </mxCell>
        <mxCell id="k0Vlq0JMDtf_6G-V6ymi-12" value="Storage" style="text;html=1;align=center;verticalAlign=middle;resizable=0;points=[];autosize=1;strokeColor=none;fillColor=none;" vertex="1" parent="1">
          <mxGeometry x="865" y="300" width="70" height="30" as="geometry" />
        </mxCell>
        <mxCell id="k0Vlq0JMDtf_6G-V6ymi-13" value="" style="rounded=0;whiteSpace=wrap;html=1;" vertex="1" parent="1">
          <mxGeometry x="885" y="340" width="30" height="500" as="geometry" />
        </mxCell>
      </root>
    </mxGraphModel>
  </diagram>
</mxfile>
